<svg xmlns="http://www.w3.org/2000/svg" width="144" height="49" fill="none"><g clip-path="url(#a)"><path fill="#A6A6A6" d="M132.565.043H11.845c-.44 0-.875 0-1.314.002-.367.002-.732.01-1.103.015-.806.01-1.61.08-2.404.212a7.998 7.998 0 0 0-2.281.753 7.725 7.725 0 0 0-3.357 3.36 7.921 7.921 0 0 0-.75 2.283 15.592 15.592 0 0 0-.215 2.403c-.01.368-.012.737-.018 1.105v27.737c.006.373.007.734.018 1.106.01.805.082 1.608.215 2.403.132.795.385 1.566.75 2.285A7.45 7.45 0 0 0 2.8 45.644a7.528 7.528 0 0 0 1.943 1.414c.718.365 1.487.62 2.28.757.796.13 1.6.202 2.405.212.371.009.736.013 1.103.013.439.003.874.003 1.314.003h120.72c.431 0 .869 0 1.301-.003.365 0 .74-.004 1.106-.013.804-.01 1.606-.08 2.4-.212a8.172 8.172 0 0 0 2.29-.757 7.533 7.533 0 0 0 1.94-1.414 7.655 7.655 0 0 0 1.418-1.937c.363-.72.613-1.49.743-2.285.134-.795.208-1.598.223-2.403.005-.372.005-.733.005-1.106.009-.436.009-.87.009-1.313V11.486c0-.44 0-.875-.009-1.31 0-.368 0-.737-.005-1.105a16.258 16.258 0 0 0-.223-2.403 7.929 7.929 0 0 0-.743-2.284 7.756 7.756 0 0 0-3.358-3.36 8.131 8.131 0 0 0-2.29-.752 15.652 15.652 0 0 0-2.4-.212c-.366-.006-.741-.013-1.106-.015-.432-.003-.87-.003-1.301-.003Z"/><path fill="#000" d="M10.537 46.992c-.366 0-.723-.004-1.085-.012a15.227 15.227 0 0 1-2.243-.196 7.065 7.065 0 0 1-1.988-.657 6.486 6.486 0 0 1-1.677-1.22A6.386 6.386 0 0 1 2.32 43.23a6.867 6.867 0 0 1-.652-1.989 14.896 14.896 0 0 1-.2-2.25c-.007-.253-.017-1.096-.017-1.096v-27.72s.01-.83.017-1.074c.01-.752.076-1.503.199-2.246a6.906 6.906 0 0 1 .652-1.995 6.448 6.448 0 0 1 1.218-1.677A6.678 6.678 0 0 1 5.22 1.957a6.988 6.988 0 0 1 1.984-.653 15.103 15.103 0 0 1 2.25-.197l1.083-.014H133.86l1.095.015c.748.009 1.493.074 2.231.195.697.118 1.373.34 2.005.657a6.718 6.718 0 0 1 2.898 2.904c.312.624.529 1.29.642 1.979.124.749.194 1.506.208 2.265.004.34.004.704.004 1.068.009.45.009.878.009 1.31V36.6c0 .436 0 .862-.009 1.29 0 .39 0 .748-.005 1.116a15.214 15.214 0 0 1-.205 2.224 6.873 6.873 0 0 1-.648 2.004 6.55 6.55 0 0 1-1.219 1.663 6.49 6.49 0 0 1-1.679 1.227c-.63.32-1.305.542-2.001.66-.742.121-1.492.187-2.244.196-.351.008-.719.013-1.076.013l-1.301.002-122.028-.002Z"/><path fill="#fff" d="M30.126 24.403a5.939 5.939 0 0 1 2.828-4.982 6.08 6.08 0 0 0-4.79-2.59c-2.015-.21-3.968 1.206-4.995 1.206-1.047 0-2.628-1.184-4.33-1.15a6.378 6.378 0 0 0-5.368 3.274c-2.32 4.018-.59 9.923 1.633 13.171 1.113 1.59 2.413 3.367 4.114 3.304 1.664-.069 2.286-1.061 4.295-1.061 1.99 0 2.574 1.061 4.31 1.021 1.785-.029 2.91-1.597 3.984-3.203a13.155 13.155 0 0 0 1.822-3.71 5.739 5.739 0 0 1-3.503-5.28ZM26.848 14.696a5.847 5.847 0 0 0 1.337-4.19 5.95 5.95 0 0 0-3.849 1.992 5.563 5.563 0 0 0-1.372 4.034 4.918 4.918 0 0 0 3.884-1.836ZM51.166 32.61h-5.68l-1.364 4.028h-2.406l5.38-14.902h2.5l5.38 14.902h-2.447l-1.363-4.028Zm-5.092-1.858h4.502l-2.22-6.537h-.061l-2.221 6.537ZM66.595 31.206c0 3.376-1.807 5.546-4.534 5.546a3.683 3.683 0 0 1-3.419-1.901h-.051v5.381h-2.23V25.773h2.158v1.807h.041a3.855 3.855 0 0 1 3.46-1.92c2.757 0 4.575 2.18 4.575 5.546Zm-2.293 0c0-2.2-1.136-3.645-2.87-3.645-1.705 0-2.85 1.476-2.85 3.645 0 2.19 1.145 3.655 2.85 3.655 1.734 0 2.87-1.435 2.87-3.655ZM78.552 31.206c0 3.376-1.806 5.546-4.534 5.546A3.684 3.684 0 0 1 70.6 34.85h-.051v5.381h-2.23V25.773h2.158v1.807h.041a3.854 3.854 0 0 1 3.46-1.92c2.757 0 4.575 2.18 4.575 5.546Zm-2.292 0c0-2.2-1.136-3.645-2.87-3.645-1.705 0-2.85 1.476-2.85 3.645 0 2.19 1.145 3.655 2.85 3.655 1.734 0 2.87-1.435 2.87-3.655ZM86.456 32.486c.165 1.478 1.6 2.448 3.562 2.448 1.88 0 3.232-.97 3.232-2.303 0-1.157-.816-1.849-2.747-2.324l-1.93-.465c-2.737-.66-4.008-1.94-4.008-4.017 0-2.571 2.241-4.337 5.423-4.337 3.148 0 5.307 1.766 5.38 4.337h-2.251c-.135-1.487-1.365-2.385-3.161-2.385-1.797 0-3.026.908-3.026 2.23 0 1.054.785 1.674 2.706 2.148l1.642.403c3.057.723 4.328 1.952 4.328 4.131 0 2.788-2.221 4.534-5.753 4.534-3.305 0-5.536-1.705-5.68-4.4h2.283ZM100.419 23.202v2.571h2.066v1.767h-2.066v5.989c0 .93.413 1.364 1.321 1.364a6.96 6.96 0 0 0 .734-.052v1.756c-.408.076-.823.11-1.239.103-2.2 0-3.057-.826-3.057-2.933v-6.228h-1.58v-1.766h1.58v-2.57h2.241ZM103.681 31.206c0-3.418 2.013-5.566 5.153-5.566 3.15 0 5.154 2.148 5.154 5.566 0 3.428-1.994 5.567-5.154 5.567s-5.153-2.139-5.153-5.567Zm8.034 0c0-2.345-1.074-3.729-2.881-3.729-1.807 0-2.881 1.395-2.881 3.73 0 2.354 1.074 3.727 2.881 3.727 1.807 0 2.881-1.373 2.881-3.728ZM115.826 25.773h2.127v1.85h.052a2.591 2.591 0 0 1 2.613-1.963c.257-.001.513.027.764.083v2.086a3.117 3.117 0 0 0-1.002-.135 2.249 2.249 0 0 0-2.324 2.5v6.444h-2.23V25.773ZM131.664 33.447c-.3 1.972-2.22 3.326-4.678 3.326-3.16 0-5.122-2.118-5.122-5.515 0-3.408 1.972-5.618 5.028-5.618 3.006 0 4.896 2.065 4.896 5.359v.764h-7.673v.135a2.84 2.84 0 0 0 .767 2.198 2.823 2.823 0 0 0 2.156.879 2.458 2.458 0 0 0 2.509-1.528h2.117Zm-7.538-3.243h5.431a2.606 2.606 0 0 0-.73-1.96 2.61 2.61 0 0 0-1.935-.797 2.75 2.75 0 0 0-2.766 2.757ZM45.794 10.52a3.168 3.168 0 0 1 3.37 3.558c0 2.287-1.237 3.602-3.37 3.602h-2.586v-7.16h2.587Zm-1.474 6.147h1.35a2.251 2.251 0 0 0 2.362-2.575 2.257 2.257 0 0 0-2.362-2.56h-1.35v5.135ZM50.42 14.976a2.558 2.558 0 0 1 3.584-2.585 2.561 2.561 0 0 1 1.512 2.585 2.559 2.559 0 0 1-3.585 2.589 2.562 2.562 0 0 1-1.511-2.59Zm4 0c0-1.171-.527-1.857-1.45-1.857-.927 0-1.448.686-1.448 1.857 0 1.18.521 1.86 1.448 1.86.923 0 1.45-.684 1.45-1.86ZM62.291 17.68h-1.106l-1.117-3.98h-.084l-1.113 3.98h-1.095l-1.49-5.404h1.082l.968 4.124h.08l1.11-4.124h1.024l1.11 4.124h.085l.963-4.124h1.067L62.29 17.68ZM65.027 12.276h1.027v.859h.08a1.618 1.618 0 0 1 1.612-.963 1.756 1.756 0 0 1 1.87 2.01v3.498H68.55v-3.23c0-.869-.377-1.3-1.166-1.3a1.24 1.24 0 0 0-1.29 1.369v3.16h-1.067v-5.403ZM71.316 10.167h1.066v7.513h-1.066v-7.513ZM73.864 14.976a2.56 2.56 0 1 1 5.097 0 2.561 2.561 0 1 1-5.097 0Zm4 0c0-1.171-.526-1.856-1.45-1.856-.927 0-1.448.685-1.448 1.856 0 1.18.522 1.86 1.448 1.86.924 0 1.45-.684 1.45-1.86ZM80.084 16.152c0-.973.724-1.534 2.01-1.613l1.464-.085v-.466c0-.57-.378-.893-1.107-.893-.595 0-1.007.218-1.126.6h-1.032c.109-.928.982-1.523 2.208-1.523 1.354 0 2.118.675 2.118 1.816v3.692h-1.026v-.76h-.085a1.82 1.82 0 0 1-1.623.849 1.631 1.631 0 0 1-1.8-1.617Zm3.474-.462v-.452l-1.32.085c-.744.05-1.082.303-1.082.779 0 .486.422.77 1.002.77a1.274 1.274 0 0 0 1.4-1.182ZM86.02 14.976c0-1.708.879-2.79 2.244-2.79a1.782 1.782 0 0 1 1.657.949H90v-2.968h1.066v7.513h-1.022v-.854h-.084a1.875 1.875 0 0 1-1.697.943c-1.375 0-2.243-1.082-2.243-2.793Zm1.103 0c0 1.146.54 1.835 1.443 1.835.899 0 1.454-.7 1.454-1.83 0-1.127-.56-1.836-1.454-1.836-.898 0-1.444.694-1.444 1.83ZM95.48 14.976a2.558 2.558 0 0 1 3.583-2.585 2.561 2.561 0 0 1 1.513 2.585c.034.355-.006.714-.118 1.053a2.56 2.56 0 0 1-4.979-1.053Zm3.999 0c0-1.171-.526-1.857-1.45-1.857-.927 0-1.448.686-1.448 1.857 0 1.18.521 1.86 1.448 1.86.924 0 1.45-.684 1.45-1.86ZM102.006 12.276h1.027v.859h.08a1.617 1.617 0 0 1 1.612-.963 1.76 1.76 0 0 1 1.87 2.01v3.498h-1.066v-3.23c0-.869-.377-1.3-1.166-1.3a1.238 1.238 0 0 0-1.29 1.369v3.16h-1.067v-5.403ZM112.621 10.931v1.37h1.171v.898h-1.171v2.779c0 .566.233.814.764.814.136 0 .272-.009.407-.025v.888a3.514 3.514 0 0 1-.58.055c-1.186 0-1.658-.417-1.658-1.46V13.2h-.858V12.3h.858v-1.37h1.067ZM115.249 10.167h1.057v2.978h.084a1.663 1.663 0 0 1 1.648-.968 1.776 1.776 0 0 1 1.404.57 1.778 1.778 0 0 1 .457 1.444v3.489h-1.068v-3.226c0-.863-.402-1.3-1.155-1.3a1.267 1.267 0 0 0-.999.369 1.264 1.264 0 0 0-.362 1.001v3.156h-1.066v-7.513ZM126.117 16.22a2.195 2.195 0 0 1-2.342 1.564 2.454 2.454 0 0 1-2.496-2.789 2.496 2.496 0 0 1 2.491-2.823c1.504 0 2.411 1.027 2.411 2.724v.372h-3.816v.06a1.44 1.44 0 0 0 .378 1.092 1.429 1.429 0 0 0 1.061.456 1.296 1.296 0 0 0 1.286-.655h1.027Zm-3.752-1.74h2.73a1.314 1.314 0 0 0-.355-.995 1.312 1.312 0 0 0-.975-.405 1.385 1.385 0 0 0-1.4 1.4Z"/></g><defs><clipPath id="a"><path fill="#fff" d="M.403.043H144v48H.403z"/></clipPath></defs></svg>