<svg width="368" height="240" viewBox="0 0 368 240" fill="none" xmlns="http://www.w3.org/2000/svg">
<path d="M64 48C64 21.4903 85.4903 0 112 0H256C282.51 0 304 21.4903 304 48V240H64V48Z" fill="white"/>
<circle cx="114.601" cy="87.2637" r="26.1036" fill="#FFF500"/>
<path d="M110.811 80.498V77.1306H117.101V96.1602H113.343V80.498H110.811Z" fill="black"/>
<circle cx="184.003" cy="87.2621" r="25.1019" fill="white" stroke="#D9D9D9" stroke-width="2"/>
<path d="M179.038 92.0361C180.709 90.6439 182.04 89.4868 183.032 88.5645C184.024 87.6248 184.851 86.6504 185.512 85.6411C186.173 84.6318 186.504 83.6399 186.504 82.6655C186.504 81.778 186.295 81.0819 185.877 80.5773C185.46 80.0727 184.816 79.8203 183.946 79.8203C183.076 79.8203 182.406 80.1162 181.936 80.7078C181.466 81.2821 181.222 82.0738 181.205 83.0831H177.655C177.725 80.9949 178.342 79.4114 179.508 78.3325C180.692 77.2537 182.188 76.7142 183.998 76.7142C185.982 76.7142 187.504 77.245 188.566 78.3064C189.627 79.3505 190.158 80.7339 190.158 82.4566C190.158 83.8139 189.792 85.1103 189.062 86.3458C188.331 87.5813 187.495 88.6602 186.556 89.5825C185.616 90.4873 184.389 91.5836 182.875 92.8713H190.576V95.8991H177.681V93.1845L179.038 92.0361Z" fill="#D9D9D9"/>
<circle cx="253.403" cy="87.2611" r="25.1019" fill="white" stroke="#D9D9D9" stroke-width="2"/>
<path d="M247.023 82.1424C247.11 80.4023 247.72 79.0624 248.851 78.1227C249.999 77.1657 251.504 76.6871 253.366 76.6871C254.637 76.6871 255.724 76.9134 256.629 77.3658C257.534 77.8008 258.212 78.4012 258.665 79.1668C259.135 79.9151 259.37 80.7677 259.37 81.7248C259.37 82.8211 259.083 83.7521 258.508 84.5177C257.951 85.266 257.282 85.7706 256.498 86.0316V86.136C257.508 86.4493 258.291 87.0061 258.848 87.8066C259.422 88.607 259.709 89.6337 259.709 90.8866C259.709 91.9307 259.465 92.8616 258.978 93.6795C258.508 94.4974 257.804 95.1412 256.864 95.611C255.942 96.0635 254.828 96.2897 253.523 96.2897C251.557 96.2897 249.956 95.7938 248.72 94.8019C247.485 93.81 246.832 92.3483 246.762 90.4168H250.312C250.347 91.2694 250.634 91.9568 251.174 92.4788C251.731 92.9834 252.487 93.2358 253.445 93.2358C254.332 93.2358 255.011 92.9921 255.48 92.5049C255.968 92.0003 256.211 91.3564 256.211 90.5734C256.211 89.5293 255.881 88.781 255.219 88.3286C254.558 87.8762 253.532 87.65 252.139 87.65H251.382V84.6482H252.139C254.61 84.6482 255.846 83.8217 255.846 82.1685C255.846 81.4203 255.62 80.8373 255.167 80.4197C254.732 80.0021 254.097 79.7933 253.262 79.7933C252.444 79.7933 251.809 80.0195 251.356 80.4719C250.921 80.907 250.669 81.4638 250.599 82.1424H247.023Z" fill="#D9D9D9"/>
<rect x="93.1113" y="143.192" width="151.852" height="8" rx="4" fill="#F1F1F1"/>
<rect x="93.1113" y="196.962" width="106.057" height="8" rx="4" fill="#F1F1F1"/>
<rect x="93.1113" y="159.137" width="116.054" height="8" rx="4" fill="#F1F1F1"/>
<rect x="93.1113" y="212.906" width="81.0547" height="8" rx="4" fill="#F1F1F1"/>
</svg>
