<svg width="368" height="240" viewBox="0 0 368 240" fill="none" xmlns="http://www.w3.org/2000/svg">
<path d="M64 48C64 21.4903 85.4903 0 112 0H256C282.51 0 304 21.4903 304 48V240H64V48Z" fill="white"/>
<rect x="99" y="49" width="170" height="41.9201" rx="8.46005" fill="white"/>
<rect x="99" y="49" width="170" height="41.9201" rx="8.46005" stroke="#F1F1F1" stroke-width="2"/>
<rect x="108.46" y="63.8652" width="12.1901" height="12.1901" rx="6.09504" fill="white"/>
<rect x="108.46" y="63.8652" width="12.1901" height="12.1901" rx="6.09504" stroke="#D9D9D9" stroke-width="2"/>
<path d="M136.585 65.113V63.3913H140.029V75.46H138.125V65.113H136.585ZM155.497 67.2652C155.199 66.6913 154.786 66.2608 154.256 65.9739C153.726 65.6759 153.113 65.5269 152.418 65.5269C151.657 65.5269 150.978 65.698 150.382 66.0401C149.786 66.3823 149.317 66.8679 148.975 67.497C148.644 68.1261 148.478 68.8545 148.478 69.6822C148.478 70.51 148.644 71.2439 148.975 71.8841C149.317 72.5132 149.786 72.9988 150.382 73.3409C150.978 73.683 151.657 73.8541 152.418 73.8541C153.445 73.8541 154.278 73.5672 154.918 72.9933C155.558 72.4193 155.95 71.6413 156.093 70.659H151.773V69.1525H158.113V70.6259C157.992 71.5198 157.672 72.3421 157.153 73.0926C156.645 73.8431 155.978 74.4446 155.15 74.8971C154.333 75.3386 153.423 75.5593 152.418 75.5593C151.337 75.5593 150.349 75.311 149.455 74.8143C148.561 74.3066 147.849 73.6058 147.319 72.7118C146.8 71.8178 146.541 70.808 146.541 69.6822C146.541 68.5565 146.8 67.5466 147.319 66.6527C147.849 65.7587 148.561 65.0634 149.455 64.5667C150.36 64.059 151.348 63.8052 152.418 63.8052C153.643 63.8052 154.73 64.1087 155.68 64.7157C156.64 65.3117 157.335 66.1615 157.765 67.2652H155.497ZM166.133 69.5498C166.751 69.6602 167.275 69.9857 167.706 70.5265C168.136 71.0673 168.351 71.6799 168.351 72.3642C168.351 72.9491 168.197 73.4789 167.888 73.9534C167.59 74.417 167.154 74.7867 166.58 75.0626C166.006 75.3275 165.338 75.46 164.577 75.46H159.975V63.9542H164.362C165.145 63.9542 165.818 64.0866 166.381 64.3515C166.944 64.6164 167.369 64.9751 167.656 65.4276C167.943 65.869 168.087 66.3657 168.087 66.9175C168.087 67.5797 167.91 68.1316 167.557 68.573C167.204 69.0145 166.729 69.3401 166.133 69.5498ZM161.862 68.7883H164.196C164.814 68.7883 165.294 68.6503 165.636 68.3744C165.99 68.0874 166.166 67.6791 166.166 67.1493C166.166 66.6306 165.99 66.2277 165.636 65.9408C165.294 65.6428 164.814 65.4938 164.196 65.4938H161.862V68.7883ZM164.411 73.9203C165.051 73.9203 165.554 73.7658 165.918 73.4568C166.282 73.1478 166.464 72.7173 166.464 72.1655C166.464 71.6026 166.271 71.1556 165.885 70.8245C165.498 70.4934 164.985 70.3279 164.345 70.3279H161.862V73.9203H164.411Z" fill="#6C6D75"/>
<rect x="98" y="101.38" width="172" height="43.9201" rx="9.46005" fill="#FFF500"/>
<rect x="108.46" y="117.245" width="12.1901" height="12.1901" rx="6.09504" fill="#E0D700" fill-opacity="0.05"/>
<rect x="108.46" y="117.245" width="12.1901" height="12.1901" rx="6.09504" stroke="#E0D700" stroke-width="2"/>
<path d="M144.83 118.774H139.466V121.605C139.698 121.318 140.029 121.087 140.459 120.91C140.89 120.722 141.348 120.629 141.833 120.629C142.716 120.629 143.439 120.822 144.002 121.208C144.565 121.594 144.973 122.091 145.227 122.698C145.481 123.294 145.608 123.934 145.608 124.618C145.608 125.888 145.244 126.908 144.515 127.681C143.798 128.454 142.771 128.84 141.436 128.84C140.178 128.84 139.173 128.525 138.423 127.896C137.672 127.267 137.248 126.445 137.148 125.429H139.4C139.499 125.871 139.72 126.224 140.062 126.489C140.415 126.754 140.862 126.886 141.403 126.886C142.054 126.886 142.545 126.682 142.876 126.274C143.207 125.865 143.373 125.325 143.373 124.651C143.373 123.967 143.202 123.448 142.86 123.095C142.529 122.731 142.037 122.549 141.386 122.549C140.923 122.549 140.536 122.665 140.227 122.897C139.918 123.128 139.698 123.437 139.565 123.824H137.347V116.738H144.83V118.774ZM159.627 120.761C159.362 120.275 158.998 119.906 158.535 119.652C158.071 119.398 157.53 119.271 156.912 119.271C156.228 119.271 155.621 119.426 155.091 119.735C154.561 120.044 154.148 120.485 153.85 121.059C153.552 121.633 153.403 122.295 153.403 123.046C153.403 123.818 153.552 124.491 153.85 125.065C154.159 125.639 154.583 126.081 155.124 126.39C155.665 126.699 156.294 126.853 157.012 126.853C157.895 126.853 158.617 126.621 159.18 126.158C159.743 125.683 160.113 125.027 160.289 124.188H156.316V122.416H162.574V124.436C162.42 125.242 162.088 125.987 161.581 126.671C161.073 127.355 160.416 127.907 159.611 128.327C158.816 128.735 157.922 128.939 156.929 128.939C155.814 128.939 154.804 128.691 153.899 128.194C153.005 127.687 152.299 126.986 151.78 126.092C151.272 125.198 151.019 124.182 151.019 123.046C151.019 121.909 151.272 120.893 151.78 119.999C152.299 119.094 153.005 118.394 153.899 117.897C154.804 117.389 155.809 117.135 156.912 117.135C158.215 117.135 159.346 117.455 160.306 118.096C161.266 118.725 161.928 119.613 162.293 120.761H159.627ZM170.845 122.913C171.496 123.035 172.031 123.36 172.45 123.89C172.87 124.42 173.08 125.027 173.08 125.711C173.08 126.329 172.925 126.875 172.616 127.35C172.318 127.813 171.882 128.178 171.308 128.443C170.734 128.707 170.056 128.84 169.272 128.84H164.289V117.284H169.057C169.84 117.284 170.514 117.411 171.076 117.665C171.65 117.919 172.081 118.272 172.368 118.725C172.666 119.177 172.815 119.69 172.815 120.264C172.815 120.938 172.633 121.5 172.268 121.953C171.915 122.405 171.441 122.725 170.845 122.913ZM166.607 122.052H168.726C169.277 122.052 169.702 121.931 170 121.688C170.298 121.434 170.447 121.076 170.447 120.612C170.447 120.148 170.298 119.79 170 119.536C169.702 119.282 169.277 119.155 168.726 119.155H166.607V122.052ZM168.941 126.953C169.504 126.953 169.94 126.82 170.249 126.555C170.569 126.29 170.729 125.915 170.729 125.429C170.729 124.933 170.563 124.547 170.232 124.271C169.901 123.984 169.454 123.84 168.891 123.84H166.607V126.953H168.941Z" fill="black"/>
<rect x="99" y="155.761" width="170" height="41.9201" rx="8.46005" fill="white"/>
<rect x="99" y="155.761" width="170" height="41.9201" rx="8.46005" stroke="#F1F1F1" stroke-width="2"/>
<rect x="108.46" y="170.626" width="12.1901" height="12.1901" rx="6.09504" fill="white"/>
<rect x="108.46" y="170.626" width="12.1901" height="12.1901" rx="6.09504" stroke="#D9D9D9" stroke-width="2"/>
<path d="M136.585 171.874V170.152H140.029V182.221H138.125V171.874H136.585ZM142.621 176.029C142.621 174.12 142.942 172.63 143.582 171.559C144.233 170.478 145.348 169.937 146.926 169.937C148.504 169.937 149.613 170.478 150.253 171.559C150.905 172.63 151.23 174.12 151.23 176.029C151.23 177.961 150.905 179.473 150.253 180.565C149.613 181.647 148.504 182.188 146.926 182.188C145.348 182.188 144.233 181.647 143.582 180.565C142.942 179.473 142.621 177.961 142.621 176.029ZM149.376 176.029C149.376 175.135 149.315 174.379 149.194 173.761C149.083 173.143 148.852 172.641 148.499 172.255C148.145 171.857 147.621 171.659 146.926 171.659C146.23 171.659 145.706 171.857 145.353 172.255C145 172.641 144.763 173.143 144.641 173.761C144.531 174.379 144.476 175.135 144.476 176.029C144.476 176.956 144.531 177.734 144.641 178.363C144.752 178.992 144.983 179.5 145.336 179.886C145.701 180.273 146.23 180.466 146.926 180.466C147.621 180.466 148.145 180.273 148.499 179.886C148.863 179.5 149.1 178.992 149.21 178.363C149.321 177.734 149.376 176.956 149.376 176.029ZM166.103 174.026C165.805 173.452 165.391 173.022 164.861 172.735C164.332 172.437 163.719 172.288 163.024 172.288C162.262 172.288 161.583 172.459 160.988 172.801C160.392 173.143 159.922 173.629 159.58 174.258C159.249 174.887 159.084 175.615 159.084 176.443C159.084 177.271 159.249 178.005 159.58 178.645C159.922 179.274 160.392 179.76 160.988 180.102C161.583 180.444 162.262 180.615 163.024 180.615C164.05 180.615 164.883 180.328 165.524 179.754C166.164 179.18 166.556 178.402 166.699 177.42H162.378V175.913H168.719V177.387C168.597 178.281 168.277 179.103 167.759 179.853C167.251 180.604 166.583 181.205 165.755 181.658C164.939 182.099 164.028 182.32 163.024 182.32C161.942 182.32 160.954 182.072 160.06 181.575C159.166 181.067 158.455 180.367 157.925 179.473C157.406 178.579 157.147 177.569 157.147 176.443C157.147 175.317 157.406 174.307 157.925 173.413C158.455 172.519 159.166 171.824 160.06 171.327C160.965 170.82 161.953 170.566 163.024 170.566C164.249 170.566 165.336 170.869 166.285 171.476C167.245 172.072 167.941 172.922 168.371 174.026H166.103ZM176.739 176.311C177.357 176.421 177.881 176.746 178.311 177.287C178.742 177.828 178.957 178.441 178.957 179.125C178.957 179.71 178.803 180.24 178.493 180.714C178.195 181.178 177.76 181.547 177.186 181.823C176.612 182.088 175.944 182.221 175.182 182.221H170.58V170.715H174.967C175.751 170.715 176.424 170.847 176.987 171.112C177.55 171.377 177.975 171.736 178.262 172.188C178.549 172.63 178.692 173.126 178.692 173.678C178.692 174.34 178.516 174.892 178.162 175.334C177.809 175.775 177.335 176.101 176.739 176.311ZM172.467 175.549H174.802C175.42 175.549 175.9 175.411 176.242 175.135C176.595 174.848 176.772 174.44 176.772 173.91C176.772 173.391 176.595 172.988 176.242 172.702C175.9 172.404 175.42 172.255 174.802 172.255H172.467V175.549ZM175.017 180.681C175.657 180.681 176.159 180.527 176.523 180.218C176.888 179.909 177.07 179.478 177.07 178.926C177.07 178.363 176.877 177.916 176.49 177.585C176.104 177.254 175.591 177.089 174.951 177.089H172.467V180.681H175.017Z" fill="#6C6D75"/>
</svg>
