<svg xmlns="http://www.w3.org/2000/svg" width="162" height="49" fill="none"><g clip-path="url(#a)"><path fill="#000" fill-rule="evenodd" d="M155.998 48.043H6.002c-3.308 0-6.002-2.706-6.002-6v-36c0-3.307 2.694-6 6.002-6h149.996c3.305 0 6.002 2.693 6.002 6v36c0 3.294-2.697 6-6.002 6Z" clip-rule="evenodd"/><path fill="#A6A6A6" fill-rule="evenodd" d="M155.998 1.003c2.774 0 5.045 2.266 5.045 5.04v36a5.046 5.046 0 0 1-5.045 5.04H6.002c-2.774 0-5.045-2.266-5.045-5.04v-36a5.046 5.046 0 0 1 5.045-5.04h149.996Zm0-.96H6.002C2.694.043 0 2.748 0 6.043v36c0 3.306 2.694 6 6.002 6h149.996c3.305 0 6.002-2.694 6.002-6v-36c0-3.295-2.697-6-6.002-6Z" clip-rule="evenodd"/><path fill="#fff" d="M85.342 15.921c-1.082 0-1.994-.38-2.715-1.128a3.85 3.85 0 0 1-1.097-2.753c0-1.093.37-2.017 1.097-2.75.718-.749 1.63-1.129 2.712-1.129 1.07 0 1.982.38 2.715 1.129.727.757 1.097 1.681 1.097 2.75-.012 1.095-.382 2.02-1.097 2.75-.718.754-1.63 1.131-2.712 1.131Zm-32.19 0a3.763 3.763 0 0 1-2.726-1.113c-.745-.736-1.124-1.667-1.124-2.765 0-1.099.379-2.03 1.124-2.765.736-.74 1.654-1.114 2.727-1.114.524 0 1.034.105 1.523.318.48.206.87.487 1.159.832l.071.086-.807.796-.084-.098c-.456-.545-1.067-.811-1.874-.811-.722 0-1.35.257-1.869.766-.521.511-.787 1.182-.787 1.993 0 .81.266 1.481.787 1.993a2.585 2.585 0 0 0 1.869.766c.769 0 1.415-.258 1.919-.766.298-.3.483-.719.548-1.248h-2.59v-1.12h3.702l.015.102c.027.189.053.383.053.563 0 1.032-.31 1.867-.923 2.484-.698.73-1.61 1.101-2.712 1.101Zm42.8-.159H94.81l-3.496-5.617.03 1.012v4.602h-1.141V8.323h1.302l.036.057 3.287 5.29-.03-1.008V8.323h1.154v7.44Zm-19.187 0h-1.156v-6.32h-2.006V8.323h5.165v1.12h-2.006v6.32h.003Zm-4.104 0h-1.153V8.323h1.153v7.44Zm-6.482 0h-1.153v-6.32H63.02V8.323h5.165v1.12h-2.006v6.32Zm-3.89-.012h-4.422V8.323h4.423v1.12h-3.266v2.04h2.947v1.107h-2.947v2.041h3.266v1.12Zm21.184-1.726a2.547 2.547 0 0 0 1.869.778c.748 0 1.359-.255 1.869-.778.506-.509.763-1.176.763-1.981 0-.805-.257-1.476-.76-1.981a2.552 2.552 0 0 0-1.869-.778c-.748 0-1.359.254-1.866.778-.506.508-.763 1.176-.763 1.98 0 .806.254 1.476.757 1.982Z"/><path fill="#fff" fill-rule="evenodd" d="M81.423 26.15c-2.816 0-5.1 2.145-5.1 5.105 0 2.932 2.299 5.105 5.1 5.105 2.816 0 5.1-2.16 5.1-5.105 0-2.96-2.284-5.105-5.1-5.105Zm0 8.187c-1.54 0-2.867-1.28-2.867-3.094 0-1.84 1.33-3.095 2.867-3.095 1.54 0 2.867 1.254 2.867 3.095.003 1.825-1.326 3.094-2.867 3.094Zm-11.125-8.188c-2.817 0-5.1 2.146-5.1 5.106 0 2.932 2.298 5.105 5.1 5.105 2.816 0 5.099-2.16 5.099-5.105 0-2.96-2.286-5.105-5.1-5.105Zm0 8.188c-1.541 0-2.867-1.28-2.867-3.094 0-1.84 1.329-3.095 2.867-3.095 1.54 0 2.867 1.254 2.867 3.095 0 1.825-1.326 3.094-2.867 3.094ZM57.06 27.709v2.16h5.164c-.158 1.212-.557 2.107-1.168 2.72-.757.76-1.925 1.587-3.984 1.587-3.175 0-5.657-2.574-5.657-5.761 0-3.187 2.483-5.76 5.657-5.76 1.713 0 2.962.679 3.889 1.546l1.526-1.532c-1.288-1.239-3.002-2.187-5.404-2.187-4.354 0-8.008 3.56-8.008 7.92 0 4.373 3.651 7.922 8.008 7.922 2.352 0 4.116-.772 5.51-2.226 1.422-1.428 1.873-3.442 1.873-5.067 0-.505-.04-.96-.12-1.346h-7.29c.004-.003.004.024.004.024Zm54.148 1.681c-.427-1.146-1.714-3.253-4.354-3.253-2.617 0-4.793 2.068-4.793 5.106 0 2.867 2.152 5.105 5.046 5.105 2.324 0 3.677-1.427 4.235-2.265l-1.726-1.161c-.572.853-1.368 1.412-2.497 1.412-1.142 0-1.94-.52-2.471-1.547l6.798-2.828c0 .003-.238-.569-.238-.569Zm-6.932 1.706c-.054-1.972 1.525-2.974 2.655-2.974.891 0 1.633.44 1.886 1.08l-4.541 1.894Zm-5.523 4.947h2.232V21.044h-2.232v14.999Zm-3.665-8.76h-.081c-.504-.6-1.46-1.146-2.682-1.146-2.536 0-4.873 2.242-4.873 5.12 0 2.868 2.325 5.082 4.873 5.082 1.207 0 2.178-.548 2.682-1.161h.08v.733c0 1.948-1.037 2.999-2.709 2.999-1.368 0-2.217-.988-2.563-1.814l-1.94.814c.558 1.347 2.045 3.014 4.5 3.014 2.617 0 4.834-1.548 4.834-5.321v-9.16H95.1v.84h-.011Zm-2.563 7.054c-1.541 0-2.829-1.293-2.829-3.08 0-1.8 1.288-3.106 2.829-3.106 1.525 0 2.709 1.32 2.709 3.107.014 1.786-1.18 3.079-2.71 3.079Zm29.134-13.293h-5.337v14.999h2.232v-5.68h3.108c2.471 0 4.9-1.799 4.9-4.653 0-2.855-2.42-4.666-4.903-4.666Zm.066 7.224h-3.174v-5.147h3.174c1.672 0 2.617 1.386 2.617 2.574 0 1.176-.957 2.573-2.617 2.573Zm13.784-2.145c-1.622 0-3.294.72-3.985 2.292l1.979.826c.426-.826 1.207-1.107 2.032-1.107 1.157 0 2.325.694 2.352 1.933v.158c-.4-.227-1.276-.574-2.325-.574-2.137 0-4.303 1.173-4.303 3.372 0 2.014 1.752 3.307 3.704 3.307 1.499 0 2.325-.68 2.84-1.466h.081v1.16h2.152V30.28c0-2.675-1.979-4.156-4.527-4.156Zm-.281 8.214c-.73 0-1.752-.36-1.752-1.28 0-1.162 1.276-1.602 2.363-1.602.984 0 1.449.213 2.033.506a2.692 2.692 0 0 1-2.644 2.376Zm12.658-7.894-2.563 6.506h-.081l-2.655-6.506h-2.402l3.984 9.094-2.271 5.054h2.325l6.13-14.148h-2.467Zm-20.093 9.6h2.232V21.044h-2.232v14.999Z" clip-rule="evenodd"/><path fill="url(#b)" fill-rule="evenodd" d="M12.47 9.083c-.346.374-.546.946-.546 1.694V37.31c0 .749.2 1.32.557 1.68l.093.08L27.38 24.204v-.332L12.562 9.002l-.093.081Z" clip-rule="evenodd"/><path fill="url(#c)" fill-rule="evenodd" d="m32.306 29.175-4.939-4.959v-.347l4.939-4.958.107.066 5.841 3.333c1.672.946 1.672 2.508 0 3.466l-5.841 3.333-.107.066Z" clip-rule="evenodd"/><path fill="url(#d)" fill-rule="evenodd" d="m32.413 29.11-5.045-5.067-14.899 14.96c.546.586 1.46.652 2.483.08l17.461-9.974Z" clip-rule="evenodd"/><path fill="url(#e)" fill-rule="evenodd" d="M32.413 18.976 14.952 9.017c-1.022-.586-1.94-.505-2.483.081l14.899 14.945 5.045-5.067Z" clip-rule="evenodd"/><path fill="#000" fill-rule="evenodd" d="m32.306 29.002-17.342 9.893c-.969.56-1.833.52-2.39.012l-.093.092.092.081c.558.506 1.422.548 2.39-.012l17.462-9.959-.12-.108Z" clip-rule="evenodd" opacity=".2"/><path fill="#000" fill-rule="evenodd" d="m38.254 25.602-5.963 3.4.107.107 5.841-3.334c.838-.478 1.25-1.107 1.25-1.732-.051.574-.478 1.119-1.235 1.559Z" clip-rule="evenodd" opacity=".12"/><path fill="#fff" fill-rule="evenodd" d="m14.952 9.191 23.302 13.293c.757.428 1.184.987 1.25 1.559 0-.626-.412-1.254-1.25-1.733L14.952 9.017c-1.672-.96-3.028-.158-3.028 1.76v.174c0-1.922 1.356-2.709 3.028-1.76Z" clip-rule="evenodd" opacity=".25"/></g><defs><linearGradient id="b" x1="26.051" x2="2.322" y1="10.491" y2="16.787" gradientUnits="userSpaceOnUse"><stop stop-color="#00A0FF"/><stop offset=".007" stop-color="#00A1FF"/><stop offset=".26" stop-color="#00BEFF"/><stop offset=".512" stop-color="#00D2FF"/><stop offset=".76" stop-color="#00DFFF"/><stop offset="1" stop-color="#00E3FF"/></linearGradient><linearGradient id="c" x1="40.435" x2="11.517" y1="24.043" y2="24.043" gradientUnits="userSpaceOnUse"><stop stop-color="#FFE000"/><stop offset=".409" stop-color="#FFBD00"/><stop offset=".775" stop-color="orange"/><stop offset="1" stop-color="#FF9C00"/></linearGradient><linearGradient id="d" x1="29.669" x2="10.514" y1="26.799" y2="58.907" gradientUnits="userSpaceOnUse"><stop stop-color="#FF3A44"/><stop offset="1" stop-color="#C31162"/></linearGradient><linearGradient id="e" x1="8.718" x2="17.264" y1=".257" y2="14.597" gradientUnits="userSpaceOnUse"><stop stop-color="#32A071"/><stop offset=".069" stop-color="#2DA771"/><stop offset=".476" stop-color="#15CF74"/><stop offset=".801" stop-color="#06E775"/><stop offset="1" stop-color="#00F076"/></linearGradient><clipPath id="a"><path fill="#fff" d="M0 .043h162v48H0z"/></clipPath></defs></svg>