<svg xmlns="http://www.w3.org/2000/svg" width="148" height="48" fill="none"><path fill="#242630" d="M83.075 22.764c0 7.303-6.104 13.223-13.634 13.223s-13.634-5.92-13.634-13.223c0-7.303 6.104-13.224 13.634-13.224s13.634 5.92 13.634 13.224Z"/><path fill="#242630" fill-rule="evenodd" d="M58.938 35.39a15.79 15.79 0 0 1-4.547-4.64H48.16c-4.52 0-8.183-3.567-8.183-7.966 0-4.4 3.664-7.967 8.183-7.967h6.175a15.772 15.772 0 0 1 4.47-4.639H48.16c-7.151 0-12.948 5.644-12.948 12.606 0 6.961 5.797 12.605 12.947 12.605h10.779Z" clip-rule="evenodd"/><path fill="#242630" d="M3.528 6.845c-.977 0-1.796-.32-2.458-.961-.662-.64-.993-1.433-.993-2.379 0-.945.331-1.738.993-2.379.662-.64 1.481-.96 2.458-.96.946 0 1.75.32 2.412.96.661.64.992 1.434.992 2.38 0 .945-.33 1.738-.992 2.378-.662.64-1.466.96-2.412.96Zm2.648 3.34V35.39H.786V10.184h5.39ZM22.26 9.772c2.048 0 3.876.412 5.483 1.236 1.64.823 2.916 2.043 3.83 3.66.914 1.616 1.371 3.568 1.371 5.855v14.868h-5.342v-14.09c0-2.257-.584-3.98-1.75-5.17-1.166-1.22-2.758-1.83-4.775-1.83-2.017 0-3.625.61-4.822 1.83-1.166 1.19-1.75 2.913-1.75 5.17v14.09h-5.39V10.184h5.39v2.882c.883-1.037 2.002-1.845 3.357-2.424a11.29 11.29 0 0 1 4.397-.87ZM97.633 9.772c2.017 0 3.798.397 5.343 1.19 1.575.762 2.805 1.723 3.687 2.882v-3.66h5.437v25.62c0 2.317-.504 4.376-1.513 6.175-1.008 1.83-2.474 3.263-4.397 4.3-1.891 1.037-4.16 1.556-6.808 1.556-3.53 0-6.461-.808-8.793-2.425-2.333-1.586-3.657-3.751-3.972-6.496h5.343c.41 1.311 1.276 2.364 2.6 3.157 1.355.823 2.963 1.235 4.822 1.235 2.175 0 3.924-.64 5.248-1.922 1.356-1.28 2.033-3.141 2.033-5.58v-4.21c-.914 1.19-2.159 2.196-3.735 3.02-1.544.793-3.31 1.19-5.295 1.19-2.27 0-4.35-.55-6.24-1.648-1.86-1.128-3.342-2.684-4.445-4.666-1.072-2.013-1.607-4.285-1.607-6.817 0-2.531.535-4.773 1.607-6.725 1.103-1.952 2.585-3.461 4.444-4.529 1.892-1.098 3.972-1.647 6.241-1.647Zm9.03 12.993c0-1.739-.378-3.248-1.134-4.53-.725-1.28-1.687-2.256-2.884-2.927a7.804 7.804 0 0 0-3.877-1.006c-1.387 0-2.68.335-3.877 1.006-1.198.64-2.175 1.601-2.931 2.882-.725 1.25-1.088 2.745-1.088 4.483 0 1.739.363 3.264 1.088 4.575.756 1.312 1.733 2.318 2.93 3.02a7.98 7.98 0 0 0 3.878 1.006c1.387 0 2.679-.335 3.877-1.006 1.197-.671 2.159-1.647 2.884-2.928.756-1.312 1.134-2.837 1.134-4.575ZM128.186 9.772c2.049 0 3.877.412 5.484 1.236 1.639.823 2.916 2.043 3.83 3.66.914 1.616 1.371 3.568 1.371 5.855v14.868h-5.343v-14.09c0-2.257-.583-3.98-1.749-5.17-1.166-1.22-2.758-1.83-4.775-1.83-2.017 0-3.625.61-4.822 1.83-1.167 1.19-1.75 2.913-1.75 5.17v14.09h-5.389V10.184h5.389v2.882c.883-1.037 2.002-1.845 3.357-2.424 1.387-.58 2.853-.87 4.397-.87ZM144.544 6.845c-.977 0-1.797-.32-2.459-.961-.661-.64-.992-1.433-.992-2.379 0-.945.331-1.738.992-2.379.662-.64 1.482-.96 2.459-.96.946 0 1.749.32 2.411.96.662.64.993 1.434.993 2.38 0 .945-.331 1.738-.993 2.378-.662.64-1.465.96-2.411.96Zm2.648 3.34V35.39h-5.39V10.184h5.39Z"/></svg>