<svg xmlns="http://www.w3.org/2000/svg" width="237" height="50" fill="none"><path fill="#151922" d="m96.327 38.709-11.032-16.55v16.548h-4.904V14.712h5.67l10.42 15.66v-15.66h4.903V38.71h-5.057Zm7.978-8.154c0-4.871 4.015-8.58 8.978-8.58 4.934 0 8.888 3.617 8.888 8.489 0 4.933-4.014 8.61-8.948 8.61-4.965 0-8.918-3.585-8.918-8.517v-.002Zm4.903-.06c0 2.481 1.808 4.197 4.045 4.197s4.015-1.714 4.015-4.197c0-2.452-1.808-4.17-4.047-4.17-2.235 0-4.013 1.718-4.013 4.17Zm24.684-8.153v4.69c-.643-.124-1.318-.124-1.532-.124-2.299 0-3.893 1.594-3.893 4.63v7.169h-4.688V22.344h4.536v2.39h.06c.889-1.87 2.545-2.575 4.231-2.575.367 0 .949.091 1.286.183ZM147.7 38.707v-2.084h-.06c-1.534 2.238-3.985 2.391-5.089 2.391-4.75 0-7.784-4.106-7.784-8.519 0-4.138 3.157-8.458 7.845-8.458.951 0 3.218.183 4.904 2.175h.062v-10.45h4.749v24.947h-4.629l.002-.002Zm0-8.212c0-2.452-1.808-4.138-4.047-4.138-2.235 0-4.043 1.686-4.043 4.138 0 2.481 1.808 4.197 4.045 4.197s4.046-1.714 4.046-4.197h-.001Zm85.779-5.592a3.206 3.206 0 1 0 0-6.411 3.203 3.203 0 0 0-3.193 3.205 3.202 3.202 0 0 0 3.193 3.206Zm0-5.814c1.434 0 2.571 1.174 2.571 2.608a2.574 2.574 0 0 1-2.571 2.596c-1.425 0-2.549-1.16-2.549-2.596 0-1.434 1.124-2.606 2.549-2.606v-.002Zm-.492 3.123h.539l.67 1.316h.825l-.767-1.484a1.073 1.073 0 0 0 .635-1.016c0-.587-.359-1.172-1.28-1.172h-1.362v3.672h.74v-1.316Zm1.149-1.172c0 .216-.133.49-.587.49h-.562v-.981h.562c.491 0 .587.276.587.491Zm-58.678.613c0-5.354-3.969-8.096-9.033-8.096h-9.388v25.258h5.227v-8.903h3.967c5.29 0 9.227-2.677 9.227-8.259Zm-5.26.13c0 2.355-2.128 3.258-4.194 3.258h-3.74v-6.547h3.709c2.161 0 4.225.837 4.225 3.288Zm12.807 17.355c1.871 0 3.838-.645 5.13-2.484l.063.031v2.13h4.646V28.138c0-4.647-3.13-6.935-7.42-6.935-3.612 0-7.162 1.742-7.741 5.42l4.419 1c.387-1.453 1.548-2.356 3.096-2.356 1.808 0 2.711 1.032 2.711 2.129 0 .709-.419 1.193-1.356 1.193h-1.677c-3.355 0-7.58 1.16-7.58 5.29v.13c0 3.194 2.709 5.129 5.709 5.129Zm1.451-3.677c-1.064 0-2.096-.516-2.096-1.742 0-1.356 1.484-1.969 2.516-1.969h3.001v.389c0 1.74-1.195 3.322-3.421 3.322Zm19.032 3.74c4.711 0 7.001-2.774 7.001-5.707 0-3.836-2.924-5.05-6.121-5.478l-.973-.118c-1.393-.2-2.036-.534-2.036-1.439 0-.773.742-1.418 1.969-1.418 1.45 0 2.258.87 2.516 2.032l4.354-1.096c-.354-1.936-2.322-4.806-6.805-4.806-3.645 0-6.807 2.385-6.807 5.515 0 3.643 2.586 4.841 5.579 5.352l.647.099c1.806.258 2.742.581 2.742 1.679 0 .645-.581 1.484-2.066 1.484-1.676 0-2.645-1.097-2.869-2.355l-4.388 1.16c.29 1.838 2.193 5.097 7.257 5.097Zm16.872 0c-5.064 0-6.967-3.256-7.259-5.096l4.388-1.16c.226 1.258 1.194 2.353 2.871 2.353 1.484 0 2.064-.837 2.064-1.484 0-1.027-.822-1.375-2.414-1.626l-.975-.15c-2.994-.51-5.579-1.709-5.579-5.352 0-3.128 3.162-5.515 6.807-5.515 4.485 0 6.451 2.87 6.807 4.806l-4.354 1.096c-.258-1.161-1.066-2.032-2.517-2.032-1.226 0-1.968.645-1.968 1.418 0 .905.641 1.24 2.034 1.439l.643.078c3.324.388 6.451 1.55 6.451 5.516 0 2.935-2.29 5.71-6.999 5.71Z"/><path fill="#43A5A1" d="M.875 31.505A31.405 31.405 0 0 0 6.86 50l15.092-24.56 5.44 9.316-1.494-6.93 6.42-10.863 10.377 17.795-1.48-6.864 1.46-2.466L57.774 50a31.41 31.41 0 0 0 5.985-18.494C63.76 14.106 49.682 0 32.318 0 14.953-.002.875 14.104.875 31.505Z"/></svg>