<svg width="277" height="119" viewBox="0 0 277 119" fill="none" xmlns="http://www.w3.org/2000/svg">
<path d="M5.43315 107.93C8.7595 108.021 12.0705 108.833 15.127 110.365L26.2079 115.918C34.4011 120.024 44.0525 120.018 52.2403 115.901L63.1778 110.401C69.6873 107.128 77.3564 107.125 83.869 110.392L90.7854 113.861C101.546 119.259 114.215 119.284 124.996 113.928L132.27 110.315C138.764 107.089 146.392 107.106 152.872 110.36L159.776 113.827C170.57 119.249 183.285 119.261 194.09 113.859L201.101 110.354C203.757 109.027 206.604 108.243 209.485 108.001L216.577 93.0244C209.037 91.9977 201.262 93.2282 194.284 96.7166L187.272 100.222C180.768 103.473 173.116 103.466 166.619 100.202L159.715 96.7348C148.951 91.3285 136.275 91.3007 125.487 96.6597L118.213 100.273C111.723 103.497 104.099 103.482 97.6218 100.233L90.7054 96.7634C79.8862 91.3361 67.1428 91.3421 56.3287 96.7795L45.3912 102.279C41.5062 104.232 36.9267 104.235 33.0391 102.287L21.9582 96.7338C16.2938 93.895 10.1021 92.545 3.93604 92.6839L5.43315 107.93Z" fill="black"/>
<path d="M220.144 116.489V115.736C223.153 110.578 231.542 91.9736 234.658 84.2361L235.411 82.4092L216.819 42.7544C212.843 34.1572 211.338 31.0407 208.867 28.354V27.7092H237.13V28.354C236.378 28.7839 235.841 30.2884 235.841 31.578C235.841 34.0497 237.023 36.6289 237.453 37.9185L247.447 62.5281H247.877L256.152 40.7126C257.334 37.5961 258.301 33.9422 258.301 31.4705C258.301 29.7511 257.441 28.6764 257.011 28.354V27.7092H277V28.354C274.958 31.4705 271.197 40.2827 268.188 47.4829L239.917 116.489H220.144Z" fill="black"/>
<path d="M181.189 79.4292V78.7844C183.231 75.2381 183.876 72.9813 183.876 68.2528V19.8681C183.876 16.1327 182.931 12.6043 181.511 10.8525V10.1961C187.128 9.78925 201.289 3.92203 205.451 0.0787941L206.295 0.493319C205.299 3.5304 204.509 13.0449 204.509 18.2899C204.509 34.2502 204.509 50.9968 204.509 66.9632C204.509 71.1544 205.369 75.1306 207.196 78.8919V79.4292H181.189Z" fill="black"/>
<path d="M149.427 79.3998V78.755C151.469 75.2087 152.114 72.9519 152.114 68.2234V44.1511C152.114 40.4973 151.362 36.403 149.75 34.3611V33.7163C154.971 33.3674 168.762 28.2066 172.21 25.0222L172.747 25.3446V66.9338C172.747 71.125 173.607 75.1012 175.434 78.8625V79.3998H149.427Z" fill="black"/>
<path d="M172.747 16.7755C169.428 19.7613 157.211 25.0805 151.474 25.7748V8.99924C156.605 7.73081 169.092 2.45761 172.747 0V16.7755Z" fill="black"/>
<path d="M80.1523 64.9998C80.1523 55.113 88.1048 52.3189 99.4962 50.8144C107.986 49.6323 120.774 48.3427 120.774 44.0441C120.774 40.2828 115.509 38.6708 108.308 38.6708C99.1738 38.6708 91.4362 41.2499 86.7077 43.6142V29.3213C94.2303 26.957 101.968 25.7749 113.037 25.7749C126.792 25.7749 141.408 28.7839 141.408 46.5158V65.6446C141.408 70.1582 141.73 74.4568 143.987 78.8629V79.4002H120.774V70.0507C117.765 74.9941 111.317 80.7973 100.463 80.7973C88.6421 80.7973 80.1523 74.5643 80.1523 64.9998ZM101.001 62.7431C101.001 67.579 104.117 69.2985 108.523 69.2985C113.037 69.2985 118.088 67.579 120.774 65.1073V52.8562C118.195 55.113 112.177 56.2951 107.556 56.9399C103.043 57.6922 101.001 59.5191 101.001 62.7431Z" fill="black"/>
<path d="M36.3215 80.6896C20.8465 80.6896 11.3366 77.9977 2.20198 74.8812L0.642944 58.3368L1.18027 58.1219C9.88498 63.2802 23.8555 66.0743 34.4946 66.0743C45.9934 66.0743 50.6144 63.2802 50.6144 59.089C50.6144 55.3277 45.3486 54.3606 41.2649 53.7158L24.6078 50.9217C13.109 48.9873 0.642944 44.6887 0.642944 30.1808C0.642944 12.8788 18.6972 5.24878 38.5783 5.24878C50.7219 5.24878 62.8655 7.07569 70.3881 10.837L64.4775 25.2374C56.3101 21.1537 46.1009 19.2193 38.041 19.2193C27.8317 19.2193 23.8555 21.9059 23.8555 25.3448C23.8555 29.3211 28.584 30.1808 32.5602 30.8256L47.7129 33.4048C63.2954 35.8765 74.3643 41.0348 74.3643 54.3606C74.3643 73.167 55.6653 80.6896 36.3215 80.6896Z" fill="black"/>
</svg>
