<svg width="851" height="603" viewBox="0 0 851 603" fill="none" xmlns="http://www.w3.org/2000/svg">
<path d="M45.3203 1011.12L136.189 918.97C154.745 900.151 177.442 885.928 202.469 877.435L262.901 856.927C313.594 839.724 353.194 799.603 369.734 748.688L375.853 729.851C392.304 679.21 431.574 639.231 481.912 621.877L502.472 614.789C552.837 597.425 592.121 557.412 608.556 506.735L614.652 487.938C631.133 437.119 670.589 397.032 721.139 379.746L740.347 373.178C790.849 355.909 830.279 315.882 846.788 265.127L866.806 203.586C874.958 178.525 888.836 155.708 907.339 136.943L998.283 44.7165" stroke="#FFF500" stroke-width="127.11"/>
</svg>
