<svg width="1082" height="706" viewBox="0 0 1082 706" fill="none" xmlns="http://www.w3.org/2000/svg">
<path d="M38.2031 863.755L141.85 786.256C163.016 770.43 187.587 759.767 213.604 755.119L276.425 743.894C329.124 734.478 374.287 700.741 398.267 652.879L407.139 635.17C430.989 587.566 475.805 553.92 528.174 544.301L549.564 540.373C601.962 530.749 646.797 497.072 670.637 449.429L679.48 431.757C703.387 383.98 748.402 350.255 800.971 340.737L820.947 337.12C873.465 327.61 918.446 293.941 942.372 246.232L971.382 188.383C983.196 164.826 1000.33 144.345 1021.44 128.564L1125.17 51.0005" stroke="#FFF500" stroke-width="127.11"/>
</svg>
